<?xml version="1.0" encoding="UTF-8"?>
<svg id="Layer_1" data-name="Layer 1" xmlns="http://www.w3.org/2000/svg" viewBox="0 0 576.08 319.98">
  <defs>
    <style>
      .cls-1 {
        fill: #fff;
        stroke-width: 0px;
      }
    </style>
  </defs>
  <path class="cls-1" d="M384.08,64c-17.7,0-32-14.3-32-32S366.37,0,384.08,0h160c17.7,0,32,14.3,32,32v160c0,17.7-14.3,32-32,32s-32-14.3-32-32v-82.7l-169.4,169.3c-12.5,12.5-32.8,12.5-45.3,0l-105.3-105.3L54.67,310.6c-12.5,12.5-32.8,12.5-45.3,0s-12.5-32.8,0-45.3L169.38,105.3c12.5-12.5,32.8-12.5,45.3,0l105.4,105.4,146.7-146.7h-82.7Z"/>
</svg>