<?xml version="1.0" encoding="UTF-8"?>
<svg id="Layer_1" data-name="Layer 1" xmlns="http://www.w3.org/2000/svg" viewBox="0 0 320 512">
  <defs>
    <style>
      .cls-1 {
        fill: #fff;
        stroke-width: 0px;
      }
    </style>
  </defs>
  <path class="cls-1" d="M48,32C48,14.3,62.3,0,80,0s32,14.3,32,32v32h32v-32c0-17.7,14.3-32,32-32s32,14.3,32,32v32c0,1.5-.1,3.1-.3,4.5,46.4,13.7,80.3,56.6,80.3,107.5,0,24.2-7.7,46.6-20.7,64.9,31.7,19.8,52.7,55,52.7,95.1,0,61.9-50.1,112-112,112v32c0,17.7-14.3,32-32,32s-32-14.3-32-32v-32h-32v32c0,17.7-14.3,32-32,32s-32-14.3-32-32v-32h-6.3c-23,0-41.7-18.7-41.7-41.7V101.6c0-20.8,16.8-37.6,37.6-37.6h10.4v-32ZM64,224h112c26.5,0,48-21.5,48-48s-21.5-48-48-48h-112v96ZM176,288h-112v96h144c26.5,0,48-21.5,48-48s-21.5-48-48-48h-32Z"/>
</svg>