<?xml version="1.0" encoding="UTF-8"?>
<svg id="Layer_2" data-name="Layer 2" xmlns="http://www.w3.org/2000/svg" viewBox="0 0 595.28 174.14">
  <defs>
    <style>
      .cls-1 {
        fill: #fbb041;
      }

      .cls-1, .cls-2 {
        stroke-width: 0px;
      }

      .cls-2 {
        fill: #fff;
      }
    </style>
  </defs>
  <path class="cls-1" d="M138.35,87.81c0-36.77,22.37-68.15,53.87-80.59-9.35-3.69-19.48-5.74-30.09-5.74-46.37,0-83.96,38.65-83.96,86.33s37.59,86.33,83.96,86.33c10.61,0,20.75-2.04,30.09-5.74-31.5-12.44-53.87-43.82-53.87-80.59Z"/>
  <path class="cls-2" d="M60.19,86.33c0-36.77,22.37-68.15,53.87-80.59-9.35-3.69-19.48-5.74-30.09-5.74C37.59,0,0,38.65,0,86.33s37.59,86.33,83.96,86.33c10.61,0,20.75-2.04,30.09-5.74-31.5-12.44-53.87-43.82-53.87-80.59Z"/>
  <path class="cls-2" d="M217.87,87.81c0-36.77,22.37-68.15,53.87-80.59-9.35-3.69-19.48-5.74-30.09-5.74-46.37,0-83.96,38.65-83.96,86.33s37.59,86.33,83.96,86.33c10.61,0,20.75-2.04,30.09-5.74-31.5-12.44-53.87-43.82-53.87-80.59Z"/>
  <g>
    <path class="cls-2" d="M282.24,77.01c-3.84,0-7.43-.73-10.77-2.2-3.34-1.47-6.28-3.52-8.82-6.15-2.54-2.63-4.51-5.66-5.94-9.1-1.42-3.44-2.13-7.12-2.13-11.06s.7-7.55,2.1-10.98c1.4-3.44,3.37-6.46,5.9-9.07,2.54-2.61,5.47-4.66,8.82-6.15,3.34-1.49,6.96-2.24,10.84-2.24,3.41,0,6.52.5,9.31,1.49,2.8.99,5.5,2.58,8.11,4.76.43.33.68.72.75,1.17.07.45.01.88-.18,1.28-.19.4-.47.7-.85.89-.1.38-.33.66-.71.85s-.82.26-1.32.21c-.5-.05-.98-.26-1.46-.64-1.85-1.61-3.86-2.81-6.04-3.59-2.18-.78-4.72-1.17-7.61-1.17-3.08,0-5.96.62-8.64,1.85-2.68,1.23-5.04,2.91-7.07,5.05-2.04,2.13-3.64,4.6-4.8,7.39-1.16,2.8-1.74,5.76-1.74,8.89s.58,6.23,1.74,9.03c1.16,2.8,2.76,5.26,4.8,7.39,2.04,2.13,4.4,3.8,7.07,5.01,2.68,1.21,5.56,1.81,8.64,1.81,2.61,0,5.07-.43,7.39-1.28,2.32-.85,4.53-2.09,6.61-3.7.57-.47,1.17-.66,1.81-.57.64.1,1.2.38,1.67.85.47.47.71,1.09.71,1.85,0,.38-.06.72-.18,1.03-.12.31-.32.63-.6.96-2.42,2.23-5.12,3.8-8.11,4.73-2.99.92-6.09,1.39-9.31,1.39Z"/>
    <path class="cls-2" d="M313.88,76.3c-.85,0-1.52-.24-1.99-.71-.47-.47-.71-1.14-.71-1.99v-33.49c0-.85.24-1.52.71-1.99.47-.47,1.14-.71,1.99-.71s1.52.24,1.99.71c.47.47.71,1.14.71,1.99v33.49c0,.85-.24,1.52-.71,1.99-.47.47-1.14.71-1.99.71ZM313.46,52.34c.14-2.94.91-5.57,2.31-7.89,1.4-2.32,3.22-4.15,5.47-5.47,2.25-1.33,4.75-1.99,7.5-1.99,2.18,0,3.86.31,5.05.92,1.18.62,1.63,1.52,1.35,2.7-.19.71-.51,1.19-.96,1.42-.45.24-1,.33-1.63.28-.64-.05-1.36-.09-2.17-.14-2.66-.24-5.01.04-7.07.82-2.06.78-3.7,1.98-4.91,3.59-1.21,1.61-1.81,3.53-1.81,5.76h-3.13Z"/>
    <path class="cls-2" d="M358.32,75.09c-.71.33-1.38.39-1.99.18s-1.11-.68-1.49-1.39l-15.85-32.85c-.33-.71-.38-1.37-.14-1.99.24-.62.71-1.09,1.42-1.42.71-.33,1.37-.39,1.99-.18.61.21,1.09.68,1.42,1.39l15.57,32.85c.38.71.5,1.38.36,1.99-.14.62-.57,1.09-1.28,1.42ZM350.42,93.22c-.38,0-.81-.1-1.28-.28-1.61-.71-2.06-1.85-1.35-3.41l22.96-50.62c.71-1.52,1.85-1.94,3.41-1.28,1.61.66,2.06,1.78,1.35,3.34l-23.04,50.62c-.47,1.09-1.16,1.63-2.06,1.63Z"/>
    <path class="cls-2" d="M385.47,92.94c-.85,0-1.53-.25-2.03-.75-.5-.5-.75-1.17-.75-2.03v-33.56c.05-3.7.93-7.03,2.67-9.99,1.73-2.96,4.07-5.3,7.04-7,2.96-1.71,6.29-2.56,9.99-2.56s7.18.87,10.17,2.6c2.99,1.73,5.34,4.09,7.07,7.07,1.73,2.99,2.59,6.38,2.59,10.17s-.84,7.11-2.52,10.1-3.97,5.34-6.86,7.07c-2.89,1.73-6.16,2.6-9.81,2.6-3.18,0-6.05-.68-8.64-2.03-2.58-1.35-4.66-3.14-6.22-5.37v20.9c0,.85-.25,1.53-.75,2.03-.5.5-1.15.75-1.96.75ZM402.39,71.68c2.75,0,5.21-.64,7.39-1.92,2.18-1.28,3.9-3.04,5.15-5.3,1.26-2.25,1.88-4.77,1.88-7.57s-.63-5.38-1.88-7.61c-1.26-2.23-2.98-3.99-5.15-5.3-2.18-1.3-4.65-1.95-7.39-1.95s-5.14.65-7.32,1.95c-2.18,1.3-3.89,3.07-5.12,5.3-1.23,2.23-1.85,4.76-1.85,7.61s.62,5.32,1.85,7.57c1.23,2.25,2.94,4.02,5.12,5.3,2.18,1.28,4.62,1.92,7.32,1.92Z"/>
    <path class="cls-2" d="M430.48,43.59c-.71,0-1.3-.22-1.78-.68-.47-.45-.71-1.01-.71-1.67,0-.71.24-1.29.71-1.74.47-.45,1.07-.68,1.78-.68h18.13c.71,0,1.3.23,1.78.68.47.45.71,1.03.71,1.74,0,.66-.24,1.22-.71,1.67-.47.45-1.07.68-1.78.68h-18.13ZM448.18,76.3c-2.51,0-4.75-.59-6.72-1.78-1.97-1.18-3.52-2.81-4.66-4.87-1.14-2.06-1.71-4.42-1.71-7.07V27.81c0-.81.25-1.47.75-1.99.5-.52,1.15-.78,1.96-.78s1.47.26,1.99.78c.52.52.78,1.19.78,1.99v34.77c0,2.42.71,4.4,2.13,5.94,1.42,1.54,3.25,2.31,5.47,2.31h1.92c.76,0,1.37.26,1.85.78.47.52.71,1.18.71,1.99s-.28,1.46-.85,1.96-1.28.75-2.13.75h-1.49Z"/>
    <path class="cls-2" d="M478.68,76.65c-3.65,0-6.92-.86-9.81-2.6-2.89-1.73-5.18-4.09-6.86-7.07-1.68-2.99-2.52-6.35-2.52-10.1s.86-7.18,2.59-10.17,4.09-5.34,7.07-7.07c2.99-1.73,6.35-2.6,10.1-2.6s7.1.87,10.06,2.6c2.96,1.73,5.31,4.09,7.04,7.07s2.62,6.38,2.67,10.17l-2.2,1.71c0,3.41-.79,6.48-2.38,9.21-1.59,2.73-3.74,4.88-6.47,6.47-2.73,1.59-5.82,2.38-9.28,2.38ZM479.25,71.68c2.75,0,5.2-.64,7.36-1.92,2.16-1.28,3.86-3.04,5.12-5.3,1.26-2.25,1.88-4.77,1.88-7.57s-.63-5.38-1.88-7.61c-1.26-2.23-2.96-3.99-5.12-5.3-2.16-1.3-4.61-1.95-7.36-1.95s-5.14.65-7.32,1.95c-2.18,1.3-3.91,3.07-5.19,5.3-1.28,2.23-1.92,4.76-1.92,7.61s.64,5.32,1.92,7.57c1.28,2.25,3.01,4.02,5.19,5.3,2.18,1.28,4.62,1.92,7.32,1.92ZM496.24,76.3c-.81,0-1.47-.25-1.99-.75s-.78-1.15-.78-1.96v-12.16l1.35-5.62,4.19,1.07v16.71c0,.81-.26,1.46-.78,1.96-.52.5-1.19.75-1.99.75Z"/>
    <path class="cls-2" d="M512.45,76.3c-.85,0-1.53-.25-2.03-.75-.5-.5-.75-1.15-.75-1.96v-33.42c0-.85.25-1.53.75-2.03.5-.5,1.17-.75,2.03-.75.81,0,1.46.25,1.96.75.5.5.75,1.17.75,2.03v33.42c0,.81-.25,1.46-.75,1.96-.5.5-1.15.75-1.96.75ZM543.02,76.3c-.81,0-1.47-.26-1.99-.78-.52-.52-.78-1.16-.78-1.92v-18.49c0-2.94-.56-5.36-1.67-7.25-1.11-1.9-2.63-3.32-4.55-4.27-1.92-.95-4.09-1.42-6.51-1.42s-4.42.45-6.29,1.35c-1.87.9-3.35,2.13-4.44,3.7-1.09,1.56-1.64,3.34-1.64,5.33h-3.91c.09-2.99.9-5.65,2.42-8,1.52-2.35,3.53-4.19,6.04-5.55,2.51-1.35,5.31-2.03,8.39-2.03,3.37,0,6.37.7,9.03,2.1,2.65,1.4,4.75,3.45,6.29,6.15,1.54,2.7,2.31,6,2.31,9.88v18.49c0,.76-.26,1.4-.78,1.92-.52.52-1.16.78-1.92.78Z"/>
    <path class="cls-2" d="M574.94,76.65c-3.65,0-6.92-.86-9.81-2.6-2.89-1.73-5.18-4.09-6.86-7.07-1.68-2.99-2.52-6.35-2.52-10.1s.86-7.18,2.59-10.17,4.09-5.34,7.07-7.07c2.99-1.73,6.35-2.6,10.1-2.6s7.1.87,10.06,2.6c2.96,1.73,5.31,4.09,7.04,7.07s2.62,6.38,2.67,10.17l-2.2,1.71c0,3.41-.79,6.48-2.38,9.21-1.59,2.73-3.74,4.88-6.47,6.47-2.73,1.59-5.82,2.38-9.28,2.38ZM575.51,71.68c2.75,0,5.2-.64,7.36-1.92,2.16-1.28,3.86-3.04,5.12-5.3,1.26-2.25,1.88-4.77,1.88-7.57s-.63-5.38-1.88-7.61c-1.26-2.23-2.96-3.99-5.12-5.3-2.16-1.3-4.61-1.95-7.36-1.95s-5.14.65-7.32,1.95c-2.18,1.3-3.91,3.07-5.19,5.3-1.28,2.23-1.92,4.76-1.92,7.61s.64,5.32,1.92,7.57c1.28,2.25,3.01,4.02,5.19,5.3,2.18,1.28,4.62,1.92,7.32,1.92ZM592.5,76.3c-.81,0-1.47-.25-1.99-.75s-.78-1.15-.78-1.96v-12.16l1.35-5.62,4.19,1.07v16.71c0,.81-.26,1.46-.78,1.96-.52.5-1.19.75-1.99.75Z"/>
    <path class="cls-2" d="M260.06,142.62c-.81,0-1.47-.26-1.99-.78-.52-.52-.78-1.18-.78-1.99v-49.98c0-.81.26-1.47.78-1.99s1.18-.78,1.99-.78,1.47.26,1.99.78c.52.52.78,1.18.78,1.99v49.98c0,.81-.26,1.47-.78,1.99-.52.52-1.19.78-1.99.78Z"/>
    <path class="cls-2" d="M279.12,142.62c-.85,0-1.53-.25-2.03-.75s-.75-1.15-.75-1.96v-33.42c0-.85.25-1.53.75-2.03.5-.5,1.17-.75,2.03-.75.81,0,1.46.25,1.96.75.5.5.74,1.17.74,2.03v33.42c0,.81-.25,1.46-.74,1.96-.5.5-1.15.75-1.96.75ZM309.69,142.62c-.81,0-1.47-.26-1.99-.78-.52-.52-.78-1.16-.78-1.92v-18.49c0-2.94-.56-5.36-1.67-7.25-1.12-1.9-2.63-3.32-4.55-4.27-1.92-.95-4.09-1.42-6.51-1.42s-4.42.45-6.29,1.35c-1.87.9-3.35,2.13-4.44,3.7-1.09,1.56-1.64,3.34-1.64,5.33h-3.91c.09-2.99.9-5.65,2.42-8,1.52-2.35,3.53-4.19,6.04-5.55,2.51-1.35,5.31-2.03,8.39-2.03,3.36,0,6.37.7,9.03,2.1,2.65,1.4,4.75,3.45,6.29,6.15,1.54,2.7,2.31,6,2.31,9.88v18.49c0,.76-.26,1.4-.78,1.92-.52.52-1.16.78-1.92.78Z"/>
    <path class="cls-2" d="M337.77,142.62c-1.14,0-1.99-.62-2.56-1.85l-15.78-33.49c-.28-.62-.31-1.23-.07-1.85.24-.62.71-1.09,1.42-1.42.66-.33,1.3-.38,1.92-.14.61.24,1.09.66,1.42,1.28l15.14,32.78h-2.91l14.93-32.78c.28-.66.77-1.1,1.46-1.32.69-.21,1.36-.18,2.03.11.66.33,1.11.82,1.35,1.46.24.64.21,1.24-.07,1.81l-15.57,33.56c-.57,1.23-1.47,1.85-2.7,1.85Z"/>
    <path class="cls-2" d="M381.42,142.97c-3.84,0-7.24-.84-10.2-2.52-2.96-1.68-5.28-4.02-6.97-7-1.68-2.99-2.52-6.4-2.52-10.24s.79-7.31,2.38-10.27c1.59-2.96,3.78-5.3,6.58-7,2.8-1.71,6.02-2.56,9.67-2.56s6.74.82,9.42,2.45c2.68,1.63,4.75,3.9,6.22,6.79,1.47,2.89,2.2,6.19,2.2,9.88,0,.76-.24,1.36-.71,1.81-.47.45-1.09.68-1.85.68h-30.22v-4.55h30.78l-3.06,2.2c.05-2.75-.45-5.21-1.49-7.39-1.04-2.18-2.52-3.89-4.44-5.12-1.92-1.23-4.21-1.85-6.86-1.85s-5.07.64-7.11,1.92c-2.04,1.28-3.61,3.05-4.73,5.3-1.11,2.25-1.67,4.82-1.67,7.71s.63,5.45,1.88,7.68c1.26,2.23,2.97,3.98,5.15,5.26,2.18,1.28,4.69,1.92,7.54,1.92,1.71,0,3.42-.3,5.15-.89,1.73-.59,3.12-1.34,4.16-2.24.52-.43,1.11-.65,1.78-.68.66-.02,1.23.15,1.71.53.61.57.93,1.19.96,1.85.02.66-.25,1.23-.82,1.71-1.56,1.33-3.56,2.43-5.97,3.31-2.42.88-4.74,1.32-6.97,1.32Z"/>
    <path class="cls-2" d="M421.02,142.97c-2.8,0-5.57-.47-8.32-1.42-2.75-.95-4.98-2.37-6.68-4.27-.52-.57-.73-1.21-.64-1.92.09-.71.45-1.33,1.07-1.85.66-.47,1.35-.66,2.06-.57.71.1,1.3.4,1.78.92,1.14,1.33,2.64,2.35,4.52,3.06,1.87.71,3.95,1.07,6.22,1.07,3.51,0,6.04-.6,7.61-1.81,1.56-1.21,2.37-2.67,2.42-4.37,0-1.71-.81-3.12-2.42-4.23s-4.27-1.98-7.96-2.6c-4.79-.76-8.3-2.09-10.52-3.98-2.23-1.9-3.34-4.15-3.34-6.75,0-2.42.64-4.43,1.92-6.04,1.28-1.61,2.99-2.82,5.12-3.63,2.13-.81,4.48-1.21,7.04-1.21,3.17,0,5.91.55,8.21,1.64,2.3,1.09,4.16,2.56,5.58,4.41.47.62.66,1.26.57,1.92-.1.66-.47,1.21-1.14,1.63-.57.33-1.22.44-1.96.32-.74-.12-1.36-.46-1.88-1.03-1.19-1.37-2.56-2.38-4.12-3.02-1.56-.64-3.37-.96-5.4-.96-2.61,0-4.69.53-6.26,1.6-1.56,1.07-2.35,2.41-2.35,4.02,0,1.09.3,2.04.89,2.84.59.81,1.61,1.52,3.06,2.13,1.44.62,3.47,1.14,6.08,1.56,3.55.57,6.36,1.41,8.42,2.52,2.06,1.11,3.53,2.42,4.41,3.91.88,1.49,1.31,3.12,1.31,4.87,0,2.23-.65,4.18-1.96,5.87-1.3,1.68-3.1,3-5.4,3.95-2.3.95-4.94,1.42-7.93,1.42Z"/>
    <path class="cls-2" d="M443.27,109.91c-.71,0-1.3-.22-1.78-.68-.47-.45-.71-1.01-.71-1.67,0-.71.24-1.29.71-1.74.47-.45,1.07-.68,1.78-.68h18.13c.71,0,1.3.23,1.78.68.47.45.71,1.03.71,1.74,0,.66-.24,1.22-.71,1.67-.47.45-1.07.68-1.78.68h-18.13ZM460.98,142.62c-2.51,0-4.75-.59-6.72-1.78-1.97-1.18-3.52-2.81-4.66-4.87-1.14-2.06-1.71-4.42-1.71-7.07v-34.77c0-.81.25-1.47.75-1.99.5-.52,1.15-.78,1.96-.78s1.47.26,1.99.78c.52.52.78,1.19.78,1.99v34.77c0,2.42.71,4.4,2.13,5.94,1.42,1.54,3.25,2.31,5.47,2.31h1.92c.76,0,1.37.26,1.85.78.47.52.71,1.18.71,1.99s-.28,1.46-.85,1.96-1.28.75-2.13.75h-1.49Z"/>
  </g>
</svg>