<?xml version="1.0" encoding="UTF-8"?>
<svg id="Layer_1" data-name="Layer 1" xmlns="http://www.w3.org/2000/svg" viewBox="0 0 320 448">
  <defs>
    <style>
      .cls-1 {
        fill: #fff;
        stroke-width: 0px;
      }
    </style>
  </defs>
  <path class="cls-1" d="M48.1,208c-.1,2.7-.1,5.3-.1,8v16c0,2.7,0,5.3.1,8h-16.1c-17.7,0-32,14.3-32,32s14.3,32,32,32h28.3c29.6,83.9,109.7,144,203.7,144h24c17.7,0,32-14.3,32-32s-14.3-32-32-32h-24c-57.9,0-108.2-32.4-133.9-80h125.9c17.7,0,32-14.3,32-32s-14.3-32-32-32H112.2c-.1-2.6-.2-5.3-.2-8v-16c0-2.7.1-5.4.2-8h143.8c17.7,0,32-14.3,32-32s-14.3-32-32-32h-125.9c25.7-47.6,76-80,133.9-80h24c17.7,0,32-14.3,32-32S305.7,0,288,0h-24C170,0,89.9,60.1,60.3,144h-28.3c-17.7,0-32,14.3-32,32s14.3,32,32,32h16.1Z"/>
</svg>