<?xml version="1.0" encoding="UTF-8"?>
<svg id="Layer_1" data-name="Layer 1" xmlns="http://www.w3.org/2000/svg" viewBox="0 0 512 448">
  <defs>
    <style>
      .cls-1 {
        fill: #fff;
        stroke-width: 0px;
      }
    </style>
  </defs>
  <path class="cls-1" d="M64,0C28.7,0,0,28.7,0,64v320c0,35.3,28.7,64,64,64h384c35.3,0,64-28.7,64-64v-224c0-35.3-28.7-64-64-64H80c-8.8,0-16-7.2-16-16s7.2-16,16-16h368c17.7,0,32-14.3,32-32S465.7,0,448,0H64ZM416,240c17.67,0,32,14.33,32,32s-14.33,32-32,32-32-14.33-32-32,14.33-32,32-32Z"/>
</svg>